<?xml version="1.0" encoding="utf-8"?>
<svg version="1.1" xmlns:xlink="http://www.w3.org/1999/xlink" width="148px" height="34px" xmlns="http://www.w3.org/2000/svg">
  <g transform="matrix(1 0 0 1 -472 -204 )">
    <path d="M 473 206  A 1 1 0 0 1 474 205 L 618 205  A 1 1 0 0 1 619 206 L 619 236  A 1 1 0 0 1 618 237 L 474 237  A 1 1 0 0 1 473 236 L 473 206  Z " fill-rule="nonzero" fill="#ffffff" stroke="none" />
    <path d="M 472.5 206  A 1.5 1.5 0 0 1 474 204.5 L 618 204.5  A 1.5 1.5 0 0 1 619.5 206 L 619.5 236  A 1.5 1.5 0 0 1 618 237.5 L 474 237.5  A 1.5 1.5 0 0 1 472.5 236 L 472.5 206  Z " stroke-width="1" stroke="#e8e8ec" fill="none" stroke-opacity="0.972549019607843" />
  </g>
</svg>