<?xml version="1.0" encoding="utf-8"?>
<svg version="1.1" xmlns:xlink="http://www.w3.org/1999/xlink" width="9px" height="9px" xmlns="http://www.w3.org/2000/svg">
  <g transform="matrix(1 0 0 1 -1586 -1021 )">
    <path d="M 1590.5 1022  C 1592.46 1022  1594 1023.54  1594 1025.5  C 1594 1027.46  1592.46 1029  1590.5 1029  C 1588.54 1029  1587 1027.46  1587 1025.5  C 1587 1023.54  1588.54 1022  1590.5 1022  Z " fill-rule="nonzero" fill="#ffffff" stroke="none" />
    <path d="M 1590.5 1022  C 1592.46 1022  1594 1023.54  1594 1025.5  C 1594 1027.46  1592.46 1029  1590.5 1029  C 1588.54 1029  1587 1027.46  1587 1025.5  C 1587 1023.54  1588.54 1022  1590.5 1022  Z " stroke-width="2" stroke="#f24f4f" fill="none" />
  </g>
</svg>