<?xml version="1.0" encoding="utf-8"?>
<svg version="1.1" xmlns:xlink="http://www.w3.org/1999/xlink" width="92px" height="34px" xmlns="http://www.w3.org/2000/svg">
  <g transform="matrix(1 0 0 1 -659 -1014 )">
    <path d="M 660 1016  A 1 1 0 0 1 661 1015 L 749 1015  A 1 1 0 0 1 750 1016 L 750 1046  A 1 1 0 0 1 749 1047 L 661 1047  A 1 1 0 0 1 660 1046 L 660 1016  Z " fill-rule="nonzero" fill="#ffffff" stroke="none" />
    <path d="M 659.5 1016  A 1.5 1.5 0 0 1 661 1014.5 L 749 1014.5  A 1.5 1.5 0 0 1 750.5 1016 L 750.5 1046  A 1.5 1.5 0 0 1 749 1047.5 L 661 1047.5  A 1.5 1.5 0 0 1 659.5 1046 L 659.5 1016  Z " stroke-width="1" stroke="#e8e8ec" fill="none" stroke-opacity="0.972549019607843" />
  </g>
</svg>