<?xml version="1.0" encoding="utf-8"?>
<svg version="1.1" xmlns:xlink="http://www.w3.org/1999/xlink" width="84px" height="32px" xmlns="http://www.w3.org/2000/svg">
  <g transform="matrix(1 0 0 1 -1142 -1498 )">
    <path d="M 1143 1501  A 2 2 0 0 1 1145 1499 L 1223 1499  A 2 2 0 0 1 1225 1501 L 1225 1527  A 2 2 0 0 1 1223 1529 L 1145 1529  A 2 2 0 0 1 1143 1527 L 1143 1501  Z " fill-rule="nonzero" fill="#ffffff" stroke="none" />
    <path d="M 1142.5 1501  A 2.5 2.5 0 0 1 1145 1498.5 L 1223 1498.5  A 2.5 2.5 0 0 1 1225.5 1501 L 1225.5 1527  A 2.5 2.5 0 0 1 1223 1529.5 L 1145 1529.5  A 2.5 2.5 0 0 1 1142.5 1527 L 1142.5 1501  Z " stroke-width="1" stroke="#e8e8ec" fill="none" stroke-opacity="0.972549019607843" />
  </g>
</svg>