<?xml version="1.0" encoding="utf-8"?>
<svg version="1.1" xmlns:xlink="http://www.w3.org/1999/xlink" width="18px" height="12px" xmlns="http://www.w3.org/2000/svg">
  <g transform="matrix(1 0 0 1 -1940 -515 )">
    <path d="M 2.0025 4.558875  L 2.0025 4.56  C 1.84631717295568 4.41446732427312  1.64077477287457 4.33354682280061  1.42729682280061 4.33354682280061  C 0.961306565130879 4.33354682280061  0.583546822800611 4.71130656513088  0.583546822800611 5.17729682280061  C 0.583546822800611 5.39077477287457  0.66446732427312 5.59631717295568  0.81 5.7525  L 6.435 11.3775  C 6.7644197401207 11.7065100503147  7.2980802598793 11.7065100503147  7.6275 11.3775  L 17.19 1.815  C 17.3355326757269 1.65881717295568  17.4164531771994 1.45327477287457  17.4164531771994 1.2397968228006  C 17.4164531771994 0.773806565130868  17.0386934348691 0.396046822800599  16.5727031771994 0.396046822800599  C 16.3592252271254 0.396046822800599  16.1536828270443 0.476967324273113  15.9975 0.622499999999999  L 7.03125 9.587625  L 2.0025 4.558875  Z " fill-rule="nonzero" fill="#0486fe" stroke="none" transform="matrix(1 0 0 1 1940 515 )" />
  </g>
</svg>