<?xml version="1.0" encoding="utf-8"?>
<svg version="1.1" xmlns:xlink="http://www.w3.org/1999/xlink" width="240px" height="34px" xmlns="http://www.w3.org/2000/svg">
  <g transform="matrix(1 0 0 1 -323 -84 )">
    <path d="M 324 86  A 1 1 0 0 1 325 85 L 561 85  A 1 1 0 0 1 562 86 L 562 116  A 1 1 0 0 1 561 117 L 325 117  A 1 1 0 0 1 324 116 L 324 86  Z " fill-rule="nonzero" fill="#ffffff" stroke="none" />
    <path d="M 323.5 86  A 1.5 1.5 0 0 1 325 84.5 L 561 84.5  A 1.5 1.5 0 0 1 562.5 86 L 562.5 116  A 1.5 1.5 0 0 1 561 117.5 L 325 117.5  A 1.5 1.5 0 0 1 323.5 116 L 323.5 86  Z " stroke-width="1" stroke="#e8e8ec" fill="none" stroke-opacity="0.972549019607843" />
  </g>
</svg>