<?xml version="1.0" encoding="utf-8"?>
<svg version="1.1" xmlns:xlink="http://www.w3.org/1999/xlink" width="106px" height="34px" xmlns="http://www.w3.org/2000/svg">
  <g transform="matrix(1 0 0 1 -207 -84 )">
    <path d="M 208 86  A 1 1 0 0 1 209 85 L 311 85  A 1 1 0 0 1 312 86 L 312 116  A 1 1 0 0 1 311 117 L 209 117  A 1 1 0 0 1 208 116 L 208 86  Z " fill-rule="nonzero" fill="#ffffff" stroke="none" />
    <path d="M 207.5 86  A 1.5 1.5 0 0 1 209 84.5 L 311 84.5  A 1.5 1.5 0 0 1 312.5 86 L 312.5 116  A 1.5 1.5 0 0 1 311 117.5 L 209 117.5  A 1.5 1.5 0 0 1 207.5 116 L 207.5 86  Z " stroke-width="1" stroke="#e8e8ec" fill="none" stroke-opacity="0.972549019607843" />
  </g>
</svg>