<?xml version="1.0" encoding="utf-8"?>
<svg version="1.1" xmlns:xlink="http://www.w3.org/1999/xlink" width="353px" height="34px" xmlns="http://www.w3.org/2000/svg">
  <g transform="matrix(1 0 0 1 -207 -516 )">
    <path d="M 208 518  A 1 1 0 0 1 209 517 L 558 517  A 1 1 0 0 1 559 518 L 559 548  A 1 1 0 0 1 558 549 L 209 549  A 1 1 0 0 1 208 548 L 208 518  Z " fill-rule="nonzero" fill="#ffffff" stroke="none" />
    <path d="M 207.5 518  A 1.5 1.5 0 0 1 209 516.5 L 558 516.5  A 1.5 1.5 0 0 1 559.5 518 L 559.5 548  A 1.5 1.5 0 0 1 558 549.5 L 209 549.5  A 1.5 1.5 0 0 1 207.5 548 L 207.5 518  Z " stroke-width="1" stroke="#e8e8ec" fill="none" stroke-opacity="0.972549019607843" />
  </g>
</svg>