<?xml version="1.0" encoding="utf-8"?>
<svg version="1.1" xmlns:xlink="http://www.w3.org/1999/xlink" width="14px" height="14px" viewBox="207 789  14 14" xmlns="http://www.w3.org/2000/svg">
  <path d="M 214 789  C 217.92 789  221 792.08  221 796  C 221 799.92  217.92 803  214 803  C 210.08 803  207 799.92  207 796  C 207 792.08  210.08 789  214 789  Z " fill-rule="nonzero" fill="#ffffff" stroke="none" />
  <path d="M 214 789.5  C 217.64 789.5  220.5 792.36  220.5 796  C 220.5 799.64  217.64 802.5  214 802.5  C 210.36 802.5  207.5 799.64  207.5 796  C 207.5 792.36  210.36 789.5  214 789.5  Z " stroke-width="1" stroke="#797979" fill="none" />
  <path d="M 214 799.5  C 212.04 799.5  210.5 797.96  210.5 796  C 210.5 794.04  212.04 792.5  214 792.5  C 215.96 792.5  217.5 794.04  217.5 796  C 217.5 797.96  215.96 799.5  214 799.5  " fill-rule="nonzero" fill="#797979" stroke="none" />
</svg>