<?xml version="1.0" encoding="utf-8"?>
<svg version="1.1" xmlns:xlink="http://www.w3.org/1999/xlink" width="14px" height="14px" viewBox="207 829  14 14" xmlns="http://www.w3.org/2000/svg">
  <path d="M 214 829  C 217.92 829  221 832.08  221 836  C 221 839.92  217.92 843  214 843  C 210.08 843  207 839.92  207 836  C 207 832.08  210.08 829  214 829  Z " fill-rule="nonzero" fill="#ffffff" stroke="none" />
  <path d="M 214 829.5  C 217.64 829.5  220.5 832.36  220.5 836  C 220.5 839.64  217.64 842.5  214 842.5  C 210.36 842.5  207.5 839.64  207.5 836  C 207.5 832.36  210.36 829.5  214 829.5  Z " stroke-width="1" stroke="#797979" fill="none" />
  <path d="M 214 839.5  C 212.04 839.5  210.5 837.96  210.5 836  C 210.5 834.04  212.04 832.5  214 832.5  C 215.96 832.5  217.5 834.04  217.5 836  C 217.5 837.96  215.96 839.5  214 839.5  " fill-rule="nonzero" fill="#797979" stroke="none" />
</svg>