<?xml version="1.0" encoding="utf-8"?>
<svg version="1.1" xmlns:xlink="http://www.w3.org/1999/xlink" width="14px" height="14px" viewBox="340 829  14 14" xmlns="http://www.w3.org/2000/svg">
  <path d="M 347 829  C 350.92 829  354 832.08  354 836  C 354 839.92  350.92 843  347 843  C 343.08 843  340 839.92  340 836  C 340 832.08  343.08 829  347 829  Z " fill-rule="nonzero" fill="#ffffff" stroke="none" />
  <path d="M 347 829.5  C 350.64 829.5  353.5 832.36  353.5 836  C 353.5 839.64  350.64 842.5  347 842.5  C 343.36 842.5  340.5 839.64  340.5 836  C 340.5 832.36  343.36 829.5  347 829.5  Z " stroke-width="1" stroke="#797979" fill="none" />
  <path d="M 347 839.5  C 345.04 839.5  343.5 837.96  343.5 836  C 343.5 834.04  345.04 832.5  347 832.5  C 348.96 832.5  350.5 834.04  350.5 836  C 350.5 837.96  348.96 839.5  347 839.5  " fill-rule="nonzero" fill="#797979" stroke="none" />
</svg>