<?xml version="1.0" encoding="utf-8"?>
<svg version="1.1" xmlns:xlink="http://www.w3.org/1999/xlink" width="14px" height="13px" xmlns="http://www.w3.org/2000/svg">
  <g transform="matrix(1 0 0 1 -788 -1799 )">
    <path d="M 13.188 10.956  C 13.195 11.712  12.579 12.335  11.823 12.335  L 2.107 12.335  C 1.351 12.335  0.735 11.712  0.735 10.956  L 0.735 1.604  C 0.735 0.841  1.351 0.225  2.107 0.225  L 7.357 0.225  C 7.644 0.225  7.882 0.463  7.882 0.75  C 7.882 1.037  7.644 1.275  7.357 1.275  L 2.107 1.275  C 1.925 1.275  1.785 1.422  1.785 1.604  L 1.785 10.949  C 1.785 11.131  1.932 11.278  2.107 11.278  L 11.816 11.278  C 11.998 11.278  12.138 11.131  12.138 10.949  L 12.138 5.804  C 12.138 5.517  12.376 5.279  12.663 5.279  C 12.95 5.279  13.188 5.517  13.188 5.804  L 13.188 10.956  Z " fill-rule="nonzero" fill="#999999" stroke="none" transform="matrix(1 0 0 1 788 1799 )" />
  </g>
</svg>