<?xml version="1.0" encoding="utf-8"?>
<svg version="1.1" xmlns:xlink="http://www.w3.org/1999/xlink" width="9px" height="9px" xmlns="http://www.w3.org/2000/svg">
  <g transform="matrix(1 0 0 1 -548 -1816 )">
    <path d="M 552.5 1817  C 554.46 1817  556 1818.54  556 1820.5  C 556 1822.46  554.46 1824  552.5 1824  C 550.54 1824  549 1822.46  549 1820.5  C 549 1818.54  550.54 1817  552.5 1817  Z " fill-rule="nonzero" fill="#ffffff" stroke="none" />
    <path d="M 552.5 1817  C 554.46 1817  556 1818.54  556 1820.5  C 556 1822.46  554.46 1824  552.5 1824  C 550.54 1824  549 1822.46  549 1820.5  C 549 1818.54  550.54 1817  552.5 1817  Z " stroke-width="2" stroke="#eaad2b" fill="none" />
  </g>
</svg>