<?xml version="1.0" encoding="utf-8"?>
<svg version="1.1" xmlns:xlink="http://www.w3.org/1999/xlink" width="350px" height="46px" xmlns="http://www.w3.org/2000/svg">
  <g transform="matrix(1 0 0 1 -490 -211 )">
    <path d="M 491 214  A 2 2 0 0 1 493 212 L 837 212  A 2 2 0 0 1 839 214 L 839 254  A 2 2 0 0 1 837 256 L 493 256  A 2 2 0 0 1 491 254 L 491 214  Z " fill-rule="nonzero" fill="#ffffff" stroke="none" />
    <path d="M 490.5 214  A 2.5 2.5 0 0 1 493 211.5 L 837 211.5  A 2.5 2.5 0 0 1 839.5 214 L 839.5 254  A 2.5 2.5 0 0 1 837 256.5 L 493 256.5  A 2.5 2.5 0 0 1 490.5 254 L 490.5 214  Z " stroke-width="1" stroke="#e8e8ec" fill="none" stroke-opacity="0.972549019607843" />
  </g>
</svg>