<?xml version="1.0" encoding="utf-8"?>
<svg version="1.1" xmlns:xlink="http://www.w3.org/1999/xlink" width="154px" height="34px" xmlns="http://www.w3.org/2000/svg">
  <g transform="matrix(1 0 0 1 -207 -866 )">
    <path d="M 208 868  A 1 1 0 0 1 209 867 L 359 867  A 1 1 0 0 1 360 868 L 360 898  A 1 1 0 0 1 359 899 L 209 899  A 1 1 0 0 1 208 898 L 208 868  Z " fill-rule="nonzero" fill="#ffffff" stroke="none" />
    <path d="M 207.5 868  A 1.5 1.5 0 0 1 209 866.5 L 359 866.5  A 1.5 1.5 0 0 1 360.5 868 L 360.5 898  A 1.5 1.5 0 0 1 359 899.5 L 209 899.5  A 1.5 1.5 0 0 1 207.5 898 L 207.5 868  Z " stroke-width="1" stroke="#e8e8ec" fill="none" stroke-opacity="0.972549019607843" />
  </g>
</svg>