<?xml version="1.0" encoding="utf-8"?>
<svg version="1.1" xmlns:xlink="http://www.w3.org/1999/xlink" width="96px" height="34px" xmlns="http://www.w3.org/2000/svg">
  <g transform="matrix(1 0 0 1 -743 -1423 )">
    <path d="M 744 1425  A 1 1 0 0 1 745 1424 L 837 1424  A 1 1 0 0 1 838 1425 L 838 1455  A 1 1 0 0 1 837 1456 L 745 1456  A 1 1 0 0 1 744 1455 L 744 1425  Z " fill-rule="nonzero" fill="#ffffff" stroke="none" />
    <path d="M 743.5 1425  A 1.5 1.5 0 0 1 745 1423.5 L 837 1423.5  A 1.5 1.5 0 0 1 838.5 1425 L 838.5 1455  A 1.5 1.5 0 0 1 837 1456.5 L 745 1456.5  A 1.5 1.5 0 0 1 743.5 1455 L 743.5 1425  Z " stroke-width="1" stroke="#e8e8ec" fill="none" stroke-opacity="0.972549019607843" />
  </g>
</svg>