<?xml version="1.0" encoding="utf-8"?>
<svg version="1.1" xmlns:xlink="http://www.w3.org/1999/xlink" width="165px" height="36px" xmlns="http://www.w3.org/2000/svg">
  <g transform="matrix(1 0 0 1 -1129 -12 )">
    <path d="M 1130 14  A 1 1 0 0 1 1131 13 L 1292 13  A 1 1 0 0 1 1293 14 L 1293 46  A 1 1 0 0 1 1292 47 L 1131 47  A 1 1 0 0 1 1130 46 L 1130 14  Z " fill-rule="nonzero" fill="#ffffff" stroke="none" />
    <path d="M 1129.5 14  A 1.5 1.5 0 0 1 1131 12.5 L 1292 12.5  A 1.5 1.5 0 0 1 1293.5 14 L 1293.5 46  A 1.5 1.5 0 0 1 1292 47.5 L 1131 47.5  A 1.5 1.5 0 0 1 1129.5 46 L 1129.5 14  Z " stroke-width="1" stroke="#e8e8ec" fill="none" stroke-opacity="0.972549019607843" />
  </g>
</svg>