<?xml version="1.0" encoding="utf-8"?>
<svg version="1.1" xmlns:xlink="http://www.w3.org/1999/xlink" width="14px" height="14px" xmlns="http://www.w3.org/2000/svg">
  <g transform="matrix(1 0 0 1 -393 -149 )">
    <path d="M 14 7  C 14 3.14015625  10.85984375 0  7 0  C 3.14015625 0  0 3.14015625  0 7  C 0 10.85984375  3.14015625 14  7 14  C 10.85984375 14  14 10.85984375  14 7  Z M 13.22220703125 7  C 13.22220703125 10.4308203125  10.4308203125 13.22220703125  7 13.22220703125  C 3.5691796875 13.22220703125  0.77779296875 10.4308203125  0.77779296875 7  C 0.77779296875 3.5691796875  3.5691796875 0.77779296875  7 0.77779296875  C 10.4308203125 0.77779296875  13.22220703125 3.5691796875  13.22220703125 7  Z " fill-rule="nonzero" fill="#0486fe" stroke="none" transform="matrix(1 0 0 1 393 149 )" />
  </g>
</svg>