<?xml version="1.0" encoding="utf-8"?>
<svg version="1.1" xmlns:xlink="http://www.w3.org/1999/xlink" width="300px" height="34px" xmlns="http://www.w3.org/2000/svg">
  <g transform="matrix(1 0 0 1 -576 -305 )">
    <path d="M 577 307  A 1 1 0 0 1 578 306 L 874 306  A 1 1 0 0 1 875 307 L 875 337  A 1 1 0 0 1 874 338 L 578 338  A 1 1 0 0 1 577 337 L 577 307  Z " fill-rule="nonzero" fill="#ffffff" stroke="none" />
    <path d="M 576.5 307  A 1.5 1.5 0 0 1 578 305.5 L 874 305.5  A 1.5 1.5 0 0 1 875.5 307 L 875.5 337  A 1.5 1.5 0 0 1 874 338.5 L 578 338.5  A 1.5 1.5 0 0 1 576.5 337 L 576.5 307  Z " stroke-width="1" stroke="#e8e8ec" fill="none" stroke-opacity="0.972549019607843" />
  </g>
</svg>