<?xml version="1.0" encoding="utf-8"?>
<svg version="1.1" xmlns:xlink="http://www.w3.org/1999/xlink" width="14px" height="14px" viewBox="340 789  14 14" xmlns="http://www.w3.org/2000/svg">
  <path d="M 347 789  C 350.92 789  354 792.08  354 796  C 354 799.92  350.92 803  347 803  C 343.08 803  340 799.92  340 796  C 340 792.08  343.08 789  347 789  Z " fill-rule="nonzero" fill="#ffffff" stroke="none" />
  <path d="M 347 789.5  C 350.64 789.5  353.5 792.36  353.5 796  C 353.5 799.64  350.64 802.5  347 802.5  C 343.36 802.5  340.5 799.64  340.5 796  C 340.5 792.36  343.36 789.5  347 789.5  Z " stroke-width="1" stroke="#797979" fill="none" />
  <path d="M 347 799.5  C 345.04 799.5  343.5 797.96  343.5 796  C 343.5 794.04  345.04 792.5  347 792.5  C 348.96 792.5  350.5 794.04  350.5 796  C 350.5 797.96  348.96 799.5  347 799.5  " fill-rule="nonzero" fill="#797979" stroke="none" />
</svg>