<?xml version="1.0" encoding="utf-8"?>
<svg version="1.1" xmlns:xlink="http://www.w3.org/1999/xlink" width="8px" height="8px" xmlns="http://www.w3.org/2000/svg">
  <g transform="matrix(1 0 0 1 -396 -152 )">
    <path d="M 7.5 3.611171875  L 4.388828125 3.611171875  L 4.388828125 0.5  C 4.388828125 0.285218402416877  4.21471323820812 0.111103515625  3.999931640625 0.111103515625  C 3.78515004304188 0.111103515625  3.61103515625 0.285218402416878  3.61103515625 0.5  L 3.61103515625 3.611171875  L 0.5 3.611171875  C 0.285218402416877 3.611171875  0.111103515625 3.78528676179188  0.111103515625 4.000068359375  C 0.111103515625 4.21484995695812  0.285218402416878 4.38896484375  0.5 4.38896484375  L 3.611171875 4.38896484375  L 3.611171875 7.5  C 3.611171875 7.71478159758312  3.78528676179188 7.888896484375  4.000068359375 7.888896484375  C 4.21484995695812 7.888896484375  4.38896484375 7.71478159758312  4.38896484375 7.5  L 4.38896484375 4.388828125  L 7.5 4.388828125  C 7.71478159758312 4.388828125  7.888896484375 4.21471323820812  7.888896484375 3.999931640625  C 7.888896484375 3.78515004304188  7.71478159758312 3.61103515625  7.5 3.61103515625  Z " fill-rule="nonzero" fill="#0486fe" stroke="none" transform="matrix(1 0 0 1 396 152 )" />
  </g>
</svg>