<?xml version="1.0" encoding="utf-8"?>
<svg version="1.1" xmlns:xlink="http://www.w3.org/1999/xlink" width="12px" height="13px" xmlns="http://www.w3.org/2000/svg">
  <g transform="matrix(1 0 0 1 -378 -326 )">
    <path d="M 11.8173828125 6.4107421875  C 11.816015625 6.1345703125  11.5904296875 5.908984375  11.3142578125 5.908984375  L 6.49765625 5.908984375  L 6.49765625 1.4943359375  C 6.49765625 1.2181640625  6.2720703125 0.992578125  5.9958984375 0.992578125  C 5.7197265625 0.992578125  5.494140625 1.2181640625  5.494140625 1.4943359375  L 5.494140625 5.908984375  L 0.67890625 5.908984375  C 0.402734375 5.908984375  0.1771484375 6.1345703125  0.1771484375 6.4107421875  C 0.1771484375 6.6869140625  0.402734375 6.9125  0.67890625 6.9125  L 5.4955078125 6.9125  L 5.4955078125 12.1296875  C 5.4955078125 12.405859375  5.72109375 12.6314453125  5.997265625 12.6314453125  C 6.2734375 12.6314453125  6.4990234375 12.405859375  6.4990234375 12.1296875  L 6.4990234375 6.9125  L 11.315625 6.9125  C 11.591796875 6.9125  11.8173828125 6.6869140625  11.8173828125 6.4107421875  Z " fill-rule="nonzero" fill="#0486fe" stroke="none" transform="matrix(1 0 0 1 378 326 )" />
  </g>
</svg>