<?xml version="1.0" encoding="utf-8"?>
<svg version="1.1" xmlns:xlink="http://www.w3.org/1999/xlink" width="23px" height="14px" xmlns="http://www.w3.org/2000/svg">
  <g transform="matrix(1 0 0 1 -1117 -1736 )">
    <path d="M 0.57275390625 9.71796875  C 0.19091796875 8.85390625  0 7.94791666666667  0 7  C 0 6.05208333333333  0.19091796875 5.14609375  0.57275390625 4.28203125  C 0.95458984375 3.41796875  1.465576171875 2.67421875  2.105712890625 2.05078125  C 2.745849609375 1.42734375  3.509521484375 0.9296875  4.396728515625 0.557812499999999  C 5.283935546875 0.1859375  6.21419270833333 0  7.1875 0  L 15.8125 0  C 16.7858072916667 0  17.716064453125 0.1859375  18.603271484375 0.557812499999999  C 19.490478515625 0.9296875  20.254150390625 1.42734375  20.894287109375 2.05078125  C 21.534423828125 2.67421875  22.04541015625 3.41796875  22.42724609375 4.28203125  C 22.80908203125 5.14609375  23 6.05208333333333  23 7  C 23 7.94791666666667  22.80908203125 8.85390625  22.42724609375 9.71796875  C 22.04541015625 10.58203125  21.534423828125 11.32578125  20.894287109375 11.94921875  C 20.254150390625 12.57265625  19.490478515625 13.0703125  18.603271484375 13.4421875  C 17.716064453125 13.8140625  16.7858072916667 14  15.8125 14  L 7.1875 14  C 6.21419270833333 14  5.283935546875 13.8140625  4.396728515625 13.4421875  C 3.509521484375 13.0703125  2.745849609375 12.57265625  2.105712890625 11.94921875  C 1.465576171875 11.32578125  0.95458984375 10.58203125  0.57275390625 9.71796875  Z M 13.583251953125 12.15703125  C 14.290771484375 12.45234375  15.0338541666667 12.6  15.8125 12.6  C 16.5911458333333 12.6  17.334228515625 12.45234375  18.041748046875 12.15703125  C 18.749267578125 11.86171875  19.361328125 11.4625  19.8779296875 10.959375  C 20.39453125 10.45625  20.804443359375 9.86015625  21.107666015625 9.17109375  C 21.410888671875 8.48203125  21.5625 7.75833333333333  21.5625 7  C 21.5625 6.24166666666667  21.410888671875 5.51796875  21.107666015625 4.82890625  C 20.804443359375 4.13984375  20.39453125 3.54375  19.8779296875 3.040625  C 19.361328125 2.5375  18.749267578125 2.13828125  18.041748046875 1.84296875  C 17.334228515625 1.54765625  16.5911458333333 1.4  15.8125 1.4  C 15.0338541666667 1.4  14.290771484375 1.54765625  13.583251953125 1.84296875  C 12.875732421875 2.13828125  12.263671875 2.5375  11.7470703125 3.040625  C 11.23046875 3.54375  10.820556640625 4.13984375  10.517333984375 4.82890625  C 10.214111328125 5.51796875  10.0625 6.24166666666667  10.0625 7  C 10.0625 7.75833333333333  10.214111328125 8.48203125  10.517333984375 9.17109375  C 10.820556640625 9.86015625  11.23046875 10.45625  11.7470703125 10.959375  C 12.263671875 11.4625  12.875732421875 11.86171875  13.583251953125 12.15703125  Z " fill-rule="nonzero" fill="#0486fe" stroke="none" transform="matrix(1 0 0 1 1117 1736 )" />
  </g>
</svg>