<?xml version="1.0" encoding="utf-8"?>
<svg version="1.1" xmlns:xlink="http://www.w3.org/1999/xlink" width="119px" height="34px" xmlns="http://www.w3.org/2000/svg">
  <g transform="matrix(1 0 0 1 -707 -483 )">
    <path d="M 708 485  A 1 1 0 0 1 709 484 L 824 484  A 1 1 0 0 1 825 485 L 825 515  A 1 1 0 0 1 824 516 L 709 516  A 1 1 0 0 1 708 515 L 708 485  Z " fill-rule="nonzero" fill="#ffffff" stroke="none" />
    <path d="M 707.5 485  A 1.5 1.5 0 0 1 709 483.5 L 824 483.5  A 1.5 1.5 0 0 1 825.5 485 L 825.5 515  A 1.5 1.5 0 0 1 824 516.5 L 709 516.5  A 1.5 1.5 0 0 1 707.5 515 L 707.5 485  Z " stroke-width="1" stroke="#e8e8ec" fill="none" stroke-opacity="0.972549019607843" />
  </g>
</svg>