<?xml version="1.0" encoding="utf-8"?>
<svg version="1.1" xmlns:xlink="http://www.w3.org/1999/xlink" width="12px" height="12px" viewBox="683 859.5  12 12" xmlns="http://www.w3.org/2000/svg">
  <path d="M 689 859.5  C 692.36 859.5  695 862.14  695 865.5  C 695 868.86  692.36 871.5  689 871.5  C 685.64 871.5  683 868.86  683 865.5  C 683 862.14  685.64 859.5  689 859.5  Z " fill-rule="nonzero" fill="#ffffff" stroke="none" />
  <path d="M 689 860  C 692.08 860  694.5 862.42  694.5 865.5  C 694.5 868.58  692.08 871  689 871  C 685.92 871  683.5 868.58  683.5 865.5  C 683.5 862.42  685.92 860  689 860  Z " stroke-width="1" stroke="#cccccc" fill="none" />
  <path d="M 689 868.5  C 687.32 868.5  686 867.18  686 865.5  C 686 863.82  687.32 862.5  689 862.5  C 690.68 862.5  692 863.82  692 865.5  C 692 867.18  690.68 868.5  689 868.5  " fill-rule="nonzero" fill="#cccccc" stroke="none" />
</svg>