<?xml version="1.0" encoding="utf-8"?>
<svg version="1.1" xmlns:xlink="http://www.w3.org/1999/xlink" width="1010px" height="190px" xmlns="http://www.w3.org/2000/svg">
  <g transform="matrix(1 0 0 1 -320 -173 )">
    <path d="M 321 178  A 4 4 0 0 1 325 174 L 1325 174  A 4 4 0 0 1 1329 178 L 1329 358  A 4 4 0 0 1 1325 362 L 325 362  A 4 4 0 0 1 321 358 L 321 178  Z " fill-rule="nonzero" fill="#ffffff" stroke="none" />
    <path d="M 320.5 178  A 4.5 4.5 0 0 1 325 173.5 L 1325 173.5  A 4.5 4.5 0 0 1 1329.5 178 L 1329.5 358  A 4.5 4.5 0 0 1 1325 362.5 L 325 362.5  A 4.5 4.5 0 0 1 320.5 358 L 320.5 178  Z " stroke-width="1" stroke="#e8e8ec" fill="none" stroke-opacity="0.972549019607843" />
  </g>
</svg>