<?xml version="1.0" encoding="utf-8"?>
<svg version="1.1" xmlns:xlink="http://www.w3.org/1999/xlink" width="16px" height="16px" xmlns="http://www.w3.org/2000/svg">
  <g transform="matrix(1 0 0 1 -469 -313 )">
    <path d="M 15.64125 7.9975  C 15.64140625 3.77875  12.21625 0.358593750000001  7.99125 0.35859375  C 3.76625 0.35859375  0.34125 3.77859375  0.34125 7.9975  C 0.34125 10.7265625  1.799375 13.24828125  4.16625 14.61296875  C 6.53328125 15.9775  9.449375 15.9775  11.81625 14.61296875  C 14.18328125 13.2484375  15.64125 10.72671875  15.64125 7.9975  Z M 8.84125 11.39265625  C 8.84125 11.86125  8.46078125 12.24140625  7.99125 12.24140625  C 7.521875 12.24140625  7.14125 11.86140625  7.14125 11.39265625  C 7.14125 11.08953125  7.30328125 10.80921875  7.56625 10.65765625  C 7.82921875 10.50609375  8.15328125 10.50609375  8.41625 10.65765625  C 8.67921875 10.80921875  8.84125 11.08953125  8.84125 11.39265625  Z M 8.84125 4.6025  L 8.84125 8.84625  C 8.84125 9.35546875  8.50125 9.695  7.99125 9.695  C 7.48125 9.695  7.14125 9.35546875  7.14125 8.84625  L 7.14125 4.6025  C 7.14125 4.09328125  7.48125 3.75375  7.99125 3.75375  C 8.50125 3.75375  8.84125 4.09328125  8.84125 4.6025  Z " fill-rule="nonzero" fill="#eaad2b" stroke="none" transform="matrix(1 0 0 1 469 313 )" />
  </g>
</svg>