<?xml version="1.0" encoding="utf-8"?>
<svg version="1.1" xmlns:xlink="http://www.w3.org/1999/xlink" width="16px" height="16px" xmlns="http://www.w3.org/2000/svg">
  <g transform="matrix(1 0 0 1 -108 -922 )">
    <path d="M 14.76140625 9.8125  C 15.761875 6.0790625  13.5459375 2.2390625  9.8125 1.23859375  C 6.078125 0.23859375  2.23984375 2.4540625  1.239375 6.18828125  C 0.238906250000001 9.9225  2.4540625 13.7609375  6.18828125 14.76140625  C 9.9225 15.761875  13.7609375 13.5459375  14.76140625 9.8125  Z M 7.4375 3.8125  C 7.4375 3.50183982822018  7.68933982822018 3.25  8 3.25  C 8.31066017177982 3.25  8.5625 3.50183982822018  8.5625 3.8125  C 8.5625 4.12316017177982  8.31066017177982 4.375  8 4.375  C 7.68933982822018 4.375  7.4375 4.12316017177982  7.4375 3.8125  Z M 9.06398204467873 6.12858292345965  C 9.06398204467873 6.17770373749971  9.05754788373487 6.22661295460697  9.04484375 6.2740625  L 7.63546875 11.53390625  C 8.04163200223665 11.4721049776335  8.40064026153407 11.2362276502439  8.61859375 10.88796875  C 8.64992520604084 10.8348719528916  8.70698594574644 10.8022881688371  8.76863762861735 10.8022881688371  C 8.86485598737693 10.8022881688371  8.94285637861735 10.8802885600775  8.94285637861735 10.9765069188371  C 8.94285637861735 10.9909631666189  8.94105708902297 11.0053632114771  8.9375 11.019375  L 8.836875 11.394375  C 8.59567725951872 12.2945955858985  7.6703796295465 12.8288435635274  6.77015625 12.58765625  C 6.47012488790801 12.5072107772579  6.29209728717407 12.1987928237664  6.3725 11.89875  L 7.781875 6.63890625  C 7.37574236717942 6.70078736484054  7.01676461615882 6.9366446475359  6.79875 7.28484375  C 6.76763070731831 7.33875426911565  6.71011243975795 7.37196563605033  6.64786491411775 7.37196563605033  C 6.55164655535816 7.37196563605033  6.47364616411775 7.29396524480991  6.47364616411775 7.19774688605033  C 6.47364616411775 7.18279243066119  6.47557160491761 7.16790020797026  6.479375 7.1534375  L 6.58 6.7784375  C 6.82119774048128 5.87821691410151  7.7464953704535 5.34396893647258  8.64671875 5.58515625  C 8.89280650760299 5.65092588715567  9.06398204467873 5.87385791563031  9.06398204467873 6.12858292345965  Z " fill-rule="nonzero" fill="#f76b0e" stroke="none" transform="matrix(1 0 0 1 108 922 )" />
  </g>
</svg>