<?xml version="1.0" encoding="utf-8"?>
<svg version="1.1" xmlns:xlink="http://www.w3.org/1999/xlink" width="769px" height="477px" xmlns="http://www.w3.org/2000/svg">
  <g transform="matrix(1 0 0 1 -91 -145 )">
    <path d="M 91 145  L 860 145  L 860 622  L 91 622  L 91 145  " fill-rule="nonzero" fill="#cccccc" stroke="none" />
    <path d="M 124 178  L 827 178  L 827 589  L 124 589  L 124 178  " fill-rule="nonzero" fill="#ffffff" stroke="none" />
    <path d="M 526.655 288.1  C 506.621 288.1  490.88 272.359  490.88 252.325  C 490.88 232.291  506.621 216.55  526.655 216.55  C 546.689 216.55  562.43 232.291  562.43 252.325  C 562.43 272.359  546.689 288.1  526.655 288.1  " fill-rule="nonzero" fill="#cccccc" stroke="none" />
    <path d="M 136 577  L 136 364.15  L 305.75 267.4  L 543.4 432.969570871261  L 679.2 325.45  L 815 432.969570871261  L 815 577  L 136 577  " fill-rule="nonzero" fill="#169bd5" stroke="none" />
  </g>
</svg>