<?xml version="1.0" encoding="utf-8"?>
<svg version="1.1" xmlns:xlink="http://www.w3.org/1999/xlink" width="12px" height="12px" xmlns="http://www.w3.org/2000/svg">
  <g transform="matrix(1 0 0 1 -95 -678 )">
    <path d="M 7.17948717948718 0.699248120300772  L 7.17948717948718 4.6466165413534  L 11.3076923076923 4.6466165413534  C 11.4797008547008 4.6466165413534  11.6209935897436 4.69948308270674  11.7315705128205 4.80521616541354  C 11.8421474358974 4.91094924812028  11.8974358974359 5.04605263157897  11.8974358974359 5.21052631578947  L 11.8974358974359 6.33834586466168  C 11.8974358974359 6.50281954887219  11.8421474358974 6.63792293233081  11.7315705128205 6.74365601503761  C 11.6209935897436 6.84938909774435  11.4797008547008 6.90225563909775  11.3076923076923 6.90225563909775  L 7.17948717948718 6.90225563909775  L 7.17948717948718 10.8496240601504  C 7.17948717948718 11.0140977443609  7.12419871794873 11.1492011278196  7.01362179487179 11.2549342105263  C 6.90304487179488 11.3606672932331  6.76175213675212 11.4135338345865  6.58974358974357 11.4135338345865  L 5.41025641025643 11.4135338345865  C 5.23824786324788 11.4135338345865  5.09695512820512 11.3606672932331  4.98637820512821 11.2549342105263  C 4.87580128205127 11.1492011278196  4.82051282051282 11.0140977443609  4.82051282051282 10.8496240601504  L 4.82051282051282 6.90225563909775  L 0.692307692307698 6.90225563909775  C 0.520299145299153 6.90225563909775  0.379006410256428 6.84938909774435  0.268429487179484 6.74365601503761  C 0.157852564102579 6.63792293233081  0.102564102564088 6.50281954887219  0.102564102564088 6.33834586466168  L 0.102564102564088 5.21052631578947  C 0.102564102564088 5.04605263157897  0.157852564102579 4.91094924812028  0.268429487179484 4.80521616541354  C 0.379006410256428 4.69948308270674  0.520299145299153 4.6466165413534  0.692307692307698 4.6466165413534  L 4.82051282051282 4.6466165413534  L 4.82051282051282 0.699248120300772  C 4.82051282051282 0.534774436090198  4.87580128205127 0.399671052631579  4.98637820512821 0.293937969924843  C 5.09695512820512 0.188204887218035  5.23824786324788 0.135338345864631  5.41025641025643 0.135338345864631  L 6.58974358974357 0.135338345864631  C 6.76175213675212 0.135338345864631  6.90304487179488 0.188204887218035  7.01362179487179 0.293937969924843  C 7.12419871794873 0.399671052631579  7.17948717948718 0.534774436090198  7.17948717948718 0.699248120300772  Z " fill-rule="nonzero" fill="#cccccc" stroke="none" transform="matrix(1 0 0 1 95 678 )" />
  </g>
</svg>