<?xml version="1.0" encoding="utf-8"?>
<svg version="1.1" xmlns:xlink="http://www.w3.org/1999/xlink" width="255px" height="34px" xmlns="http://www.w3.org/2000/svg">
  <g transform="matrix(1 0 0 1 -482 -303 )">
    <path d="M 483 305  A 1 1 0 0 1 484 304 L 735 304  A 1 1 0 0 1 736 305 L 736 335  A 1 1 0 0 1 735 336 L 484 336  A 1 1 0 0 1 483 335 L 483 305  Z " fill-rule="nonzero" fill="#ffffff" stroke="none" />
    <path d="M 482.5 305  A 1.5 1.5 0 0 1 484 303.5 L 735 303.5  A 1.5 1.5 0 0 1 736.5 305 L 736.5 335  A 1.5 1.5 0 0 1 735 336.5 L 484 336.5  A 1.5 1.5 0 0 1 482.5 335 L 482.5 305  Z " stroke-width="1" stroke="#e8e8ec" fill="none" stroke-opacity="0.972549019607843" />
  </g>
</svg>