<?xml version="1.0" encoding="utf-8"?>
<svg version="1.1" xmlns:xlink="http://www.w3.org/1999/xlink" width="20px" height="20px" xmlns="http://www.w3.org/2000/svg">
  <g transform="matrix(1 0 0 1 -883 -31 )">
    <path d="M 6.484375 1.5625  L 1.5625 1.5625  L 1.5625 6.484375  C 1.5625 6.90625  1.28125 7.1875  0.859375 7.1875  C 0.4375 7.1875  0.15625 6.90625  0.15625 6.484375  L 0.15625 0.859375  C 0.15625 0.4375  0.4375 0.15625  0.859375 0.15625  L 6.484375 0.15625  C 6.90625 0.15625  7.1875 0.4375  7.1875 0.859375  C 7.1875 1.28125  6.90625 1.5625  6.484375 1.5625  Z M 1.5625 13.515625  L 1.5625 18.4375  L 6.484375 18.4375  C 6.90625 18.4375  7.1875 18.71875  7.1875 19.140625  C 7.1875 19.5625  6.90625 19.84375  6.484375 19.84375  L 0.859375 19.84375  C 0.4375 19.84375  0.15625 19.5625  0.15625 19.140625  L 0.15625 13.515625  C 0.15625 13.09375  0.4375 12.8125  0.859375 12.8125  C 1.28125 12.8125  1.5625 13.09375  1.5625 13.515625  Z M 18.4375 6.484375  L 18.4375 1.5625  L 13.515625 1.5625  C 13.09375 1.5625  12.8125 1.28125  12.8125 0.859375  C 12.8125 0.4375  13.09375 0.15625  13.515625 0.15625  L 19.140625 0.15625  C 19.5625 0.15625  19.84375 0.4375  19.84375 0.859375  L 19.84375 6.484375  C 19.84375 6.90625  19.5625 7.1875  19.140625 7.1875  C 18.71875 7.1875  18.4375 6.90625  18.4375 6.484375  Z M 13.515625 18.4375  L 18.4375 18.4375  L 18.4375 13.515625  C 18.4375 13.09375  18.71875 12.8125  19.140625 12.8125  C 19.5625 12.8125  19.84375 13.09375  19.84375 13.515625  L 19.84375 19.140625  C 19.84375 19.5625  19.5625 19.84375  19.140625 19.84375  L 13.515625 19.84375  C 13.09375 19.84375  12.8125 19.5625  12.8125 19.140625  C 12.8125 18.71875  13.09375 18.4375  13.515625 18.4375  Z M 4.375 10  C 4.375 9.578125  4.65625 9.296875  5.078125 9.296875  L 14.921875 9.296875  C 15.34375 9.296875  15.625 9.578125  15.625 10  C 15.625 10.421875  15.34375 10.703125  14.921875 10.703125  L 5.078125 10.703125  C 4.65625 10.703125  4.375 10.421875  4.375 10  Z " fill-rule="nonzero" fill="#000000" stroke="none" transform="matrix(1 0 0 1 883 31 )" />
  </g>
</svg>