<?xml version="1.0" encoding="utf-8"?>
<svg version="1.1" xmlns:xlink="http://www.w3.org/1999/xlink" width="64px" height="64px" xmlns="http://www.w3.org/2000/svg">
  <g transform="matrix(1 0 0 1 -627 -83 )">
    <path d="M 63.50036 32.00036  C 63.50036 14.603072  49.397432 0.5  32 0.5  C 14.603648 0.5  0.499640000000001 14.603072  0.499640000000001 32.00036  C 0.49964 49.397216  14.603648 63.5  32 63.5  C 49.397432 63.5  63.50036 49.397216  63.50036 32.00036  Z M 44.584304 36.73472  C 44.584304 37.604696  43.878848 38.302304  43.009232 38  L 30.63704 38  C 30.5612502968223 38.3139936699625  30.4847522135135 38.319576417785  30.408152 38.319584  C 29.537672 38.319584  28.83308 37.614056  29 36.744872  L 29 13.121888  C 28.832432 12.251912  29.546384 11.546528  30.416216 11.546528  C 31.28648 11.546528  32 12.25112  32 13.121888  L 32 35  L 43.00988 35  C 43.878848 35.168  44.584304 35.865896  44.584304 36.73472  Z " fill-rule="nonzero" fill="#eaad2b" stroke="none" transform="matrix(1 0 0 1 627 83 )" />
  </g>
</svg>