<?xml version="1.0" encoding="utf-8"?>
<svg version="1.1" xmlns:xlink="http://www.w3.org/1999/xlink" width="9px" height="9px" xmlns="http://www.w3.org/2000/svg">
  <g transform="matrix(1 0 0 1 -548 -1657 )">
    <path d="M 552.5 1658  C 554.46 1658  556 1659.54  556 1661.5  C 556 1663.46  554.46 1665  552.5 1665  C 550.54 1665  549 1663.46  549 1661.5  C 549 1659.54  550.54 1658  552.5 1658  Z " fill-rule="nonzero" fill="#ffffff" stroke="none" />
    <path d="M 552.5 1658  C 554.46 1658  556 1659.54  556 1661.5  C 556 1663.46  554.46 1665  552.5 1665  C 550.54 1665  549 1663.46  549 1661.5  C 549 1659.54  550.54 1658  552.5 1658  Z " stroke-width="2" stroke="#57d556" fill="none" />
  </g>
</svg>