<?xml version="1.0" encoding="utf-8"?>
<svg version="1.1" xmlns:xlink="http://www.w3.org/1999/xlink" width="14px" height="13px" xmlns="http://www.w3.org/2000/svg">
  <g transform="matrix(1 0 0 1 -996 -405 )">
    <path d="M 12.53125 11.078125  L 12.53125 5.03253125  C 12.53125 4.773640625  12.741109375 4.56378125  13 4.56378125  C 13.258890625 4.56378125  13.46875 4.773640625  13.46875 5.03253125  L 13.46875 11.078125  C 13.46875 11.85478125  12.83915625 12.484375  12.0625 12.484375  L 1.9375 12.484375  C 1.16084375 12.484375  0.53125 11.85478125  0.53125 11.078125  L 0.53125 1.40625  C 0.53125 0.62959375  1.16084375 0  1.9375 0  L 8.5390625 0  C 8.797953125 0  9.0078125 0.209859375  9.0078125 0.46875  C 9.0078125 0.727640625  8.797953125 0.9375  8.5390625 0.9375  L 1.9375 0.9375  C 1.678609375 0.9375  1.46875 1.147359375  1.46875 1.40625  L 1.46875 11.078125  C 1.46875 11.337015625  1.678609375 11.546875  1.9375 11.546875  L 12.0625 11.546875  C 12.321390625 11.546875  12.53125 11.337015625  12.53125 11.078125  Z " fill-rule="nonzero" fill="#0486fe" stroke="none" transform="matrix(1 0 0 1 996 405 )" />
  </g>
</svg>