<?xml version="1.0" encoding="utf-8"?>
<svg version="1.1" xmlns:xlink="http://www.w3.org/1999/xlink" width="32px" height="20px" xmlns="http://www.w3.org/2000/svg">
  <g transform="matrix(1 0 0 1 -8 -674 )">
    <path d="M 6.13333333333333 13.3333333333333  C 6.31111111111111 13.3333333333333  6.4 13.4259259259259  6.4 13.6111111111111  L 6.4 15.2777777777778  C 6.4 15.462962962963  6.31111111111111 15.5555555555556  6.13333333333333 15.5555555555556  L 4.53333333333333 15.5555555555556  C 4.35555555555556 15.5555555555556  4.26666666666667 15.462962962963  4.26666666666667 15.2777777777778  L 4.26666666666667 13.6111111111111  C 4.26666666666667 13.4259259259259  4.35555555555556 13.3333333333333  4.53333333333333 13.3333333333333  L 6.13333333333333 13.3333333333333  Z M 8.26666666666667 8.88888888888889  C 8.44444444444444 8.88888888888889  8.53333333333333 8.98148148148148  8.53333333333333 9.16666666666667  L 8.53333333333333 10.8333333333333  C 8.53333333333333 11.0185185185185  8.44444444444444 11.1111111111111  8.26666666666667 11.1111111111111  L 4.53333333333333 11.1111111111111  C 4.35555555555556 11.1111111111111  4.26666666666667 11.0185185185185  4.26666666666667 10.8333333333333  L 4.26666666666667 9.16666666666667  C 4.26666666666667 8.98148148148148  4.35555555555556 8.88888888888889  4.53333333333333 8.88888888888889  L 8.26666666666667 8.88888888888889  Z M 6.13333333333333 4.44444444444444  C 6.31111111111111 4.44444444444444  6.4 4.53703703703703  6.4 4.72222222222222  L 6.4 6.38888888888889  C 6.4 6.57407407407407  6.31111111111111 6.66666666666667  6.13333333333333 6.66666666666667  L 4.53333333333333 6.66666666666667  C 4.35555555555556 6.66666666666667  4.26666666666667 6.57407407407407  4.26666666666667 6.38888888888889  L 4.26666666666667 4.72222222222222  C 4.26666666666667 4.53703703703703  4.35555555555556 4.44444444444444  4.53333333333333 4.44444444444444  L 6.13333333333333 4.44444444444444  Z M 23.2 13  C 23.3777777777778 13.3333333333333  23.4666666666667 13.4259259259259  23.4666666666667 13.6111111111111  L 23.4666666666667 15.2777777777778  C 23.4666666666667 15.462962962963  23.3777777777778 15.5555555555556  23.2 15.5555555555556  L 8.8 15.5555555555556  C 8.62222222222222 15.5555555555556  8.53333333333333 15.462962962963  8.53333333333333 15.2777777777778  L 8.53333333333333 13.6111111111111  C 8.53333333333333 13.4259259259259  8.62222222222222 13.3333333333333  8.8 13  L 23.2 13  Z M 12.5333333333333 8.88888888888889  C 12.7111111111111 8.88888888888889  12.8 8.98148148148148  12.8 9.16666666666667  L 12.8 10.8333333333333  C 12.8 11.0185185185185  12.7111111111111 11.1111111111111  12.5333333333333 11.1111111111111  L 10.9333333333333 11.1111111111111  C 10.7555555555556 11.1111111111111  10.6666666666667 11.0185185185185  10.6666666666667 10.8333333333333  L 10.6666666666667 9.16666666666667  C 10.6666666666667 8.98148148148148  10.7555555555556 8.88888888888889  10.9333333333333 8.88888888888889  L 12.5333333333333 8.88888888888889  Z M 10.4 4.44444444444444  C 10.5777777777778 4.44444444444444  10.6666666666667 4.53703703703703  10.6666666666667 4.72222222222222  L 10.6666666666667 6.38888888888889  C 10.6666666666667 6.57407407407407  10.5777777777778 6.66666666666667  10.4 6.66666666666667  L 8.8 6.66666666666667  C 8.62222222222222 6.66666666666667  8.53333333333333 6.57407407407407  8.53333333333333 6.38888888888889  L 8.53333333333333 4.72222222222222  C 8.53333333333333 4.53703703703703  8.62222222222222 4.44444444444444  8.8 4.44444444444444  L 10.4 4.44444444444444  Z M 16.8 8.88888888888889  C 16.9777777777778 8.88888888888889  17.0666666666667 8.98148148148148  17.0666666666667 9.16666666666667  L 17.0666666666667 10.8333333333333  C 17.0666666666667 11.0185185185185  16.9777777777778 11.1111111111111  16.8 11.1111111111111  L 15.2 11.1111111111111  C 15.0222222222222 11.1111111111111  14.9333333333333 11.0185185185185  14.9333333333333 10.8333333333333  L 14.9333333333333 9.16666666666667  C 14.9333333333333 8.98148148148148  15.0222222222222 8.88888888888889  15.2 8.88888888888889  L 16.8 8.88888888888889  Z M 14.6666666666667 4.44444444444444  C 14.8444444444444 4.44444444444444  14.9333333333333 4.53703703703703  14.9333333333333 4.72222222222222  L 14.9333333333333 6.38888888888889  C 14.9333333333333 6.57407407407407  14.8444444444444 6.66666666666667  14.6666666666667 6.66666666666667  L 13.0666666666667 6.66666666666667  C 12.8888888888889 6.66666666666667  12.8 6.57407407407407  12.8 6.38888888888889  L 12.8 4.72222222222222  C 12.8 4.53703703703703  12.8888888888889 4.44444444444444  13.0666666666667 4.44444444444444  L 14.6666666666667 4.44444444444444  Z M 21.0666666666667 8.88888888888889  C 21.2444444444444 8.88888888888889  21.3333333333333 8.98148148148148  21.3333333333333 9.16666666666667  L 21.3333333333333 10.8333333333333  C 21.3333333333333 11.0185185185185  21.2444444444444 11.1111111111111  21.0666666666667 11.1111111111111  L 19.4666666666667 11.1111111111111  C 19.2888888888889 11.1111111111111  19.2 11.0185185185185  19.2 10.8333333333333  L 19.2 9.16666666666667  C 19.2 8.98148148148148  19.2888888888889 8.88888888888889  19.4666666666667 8.88888888888889  L 21.0666666666667 8.88888888888889  Z M 27.4666666666667 13.3333333333333  C 27.6444444444444 13.3333333333333  27.7333333333333 13.4259259259259  27.7333333333333 13.6111111111111  L 27.7333333333333 15.2777777777778  C 27.7333333333333 15.462962962963  27.6444444444444 15.5555555555556  27.4666666666667 15.5555555555556  L 25.8666666666667 15.5555555555556  C 25.6888888888889 15.5555555555556  25.6 15.462962962963  25.6 15.2777777777778  L 25.6 13.6111111111111  C 25.6 13.4259259259259  25.6888888888889 13.3333333333333  25.8666666666667 13.3333333333333  L 27.4666666666667 13.3333333333333  Z M 18.9333333333333 4.44444444444444  C 19.1111111111111 4.44444444444444  19.2 4.53703703703703  19.2 4.72222222222222  L 19.2 6.38888888888889  C 19.2 6.57407407407407  19.1111111111111 6.66666666666667  18.9333333333333 6.66666666666667  L 17.3333333333333 6.66666666666667  C 17.1555555555556 6.66666666666667  17.0666666666667 6.57407407407407  17.0666666666667 6.38888888888889  L 17.0666666666667 4.72222222222222  C 17.0666666666667 4.53703703703703  17.1555555555556 4.44444444444444  17.3333333333333 4.44444444444444  L 18.9333333333333 4.44444444444444  Z M 23.2 4.44444444444444  C 23.3777777777778 4.44444444444444  23.4666666666667 4.53703703703703  23.4666666666667 4.72222222222222  L 23.4666666666667 6.38888888888889  C 23.4666666666667 6.57407407407407  23.3777777777778 6.66666666666667  23.2 6.66666666666667  L 21.6 6.66666666666667  C 21.4222222222222 6.66666666666667  21.3333333333333 6.57407407407407  21.3333333333333 6.38888888888889  L 21.3333333333333 4.72222222222222  C 21.3333333333333 4.53703703703703  21.4222222222222 4.44444444444444  21.6 4.44444444444444  L 23.2 4.44444444444444  Z M 27.4666666666667 4.44444444444444  C 27.6444444444444 4.44444444444444  27.7333333333333 4.53703703703703  27.7333333333333 4.72222222222222  L 27.7333333333333 10.8333333333333  C 27.7333333333333 11.0185185185185  27.6444444444444 11.1111111111111  27.4666666666667 11.1111111111111  L 23.7333333333333 11.1111111111111  C 23.5555555555556 11.1111111111111  23.4666666666667 11.0185185185185  23.4666666666667 10.8333333333333  L 23.4666666666667 9.16666666666667  C 23.4666666666667 8.98148148148148  23.5555555555556 8.88888888888889  23.7333333333333 8.88888888888889  L 25.6 8.88888888888889  L 25.6 4.72222222222222  C 25.6 4.53703703703703  25.6888888888889 4.44444444444444  25.8666666666667 4.44444444444444  L 27.4666666666667 4.44444444444444  Z M 2.13333333333333 17.7777777777778  L 29.8666666666667 17.7777777777778  L 29.8666666666667 2.22222222222222  L 2.13333333333333 2.22222222222222  L 2.13333333333333 17.7777777777778  Z M 31.375 0.651041666666667  C 31.7916666666667 1.08506944444444  32 1.60879629629629  32 2.22222222222222  L 32 17.7777777777778  C 32 18.3912037037037  31.7916666666667 18.9149305555556  31.375 19.3489583333333  C 30.9583333333333 19.7829861111111  30.4555555555556 20  29.8666666666667 20  L 2.13333333333333 20  C 1.54444444444444 20  1.04166666666667 19.7829861111111  0.625 19.3489583333333  C 0.208333333333333 18.9149305555556  0 18.3912037037037  0 17.7777777777778  L 0 2.22222222222222  C 0 1.60879629629629  0.208333333333333 1.08506944444444  0.625 0.651041666666667  C 1.04166666666667 0.217013888888888  1.54444444444444 0  2.13333333333333 0  L 29.8666666666667 0  C 30.4555555555556 0  30.9583333333333 0.217013888888888  31.375 0.651041666666667  Z " fill-rule="nonzero" fill="#cccccc" stroke="none" transform="matrix(1 0 0 1 8 674 )" />
  </g>
</svg>