<?xml version="1.0" encoding="utf-8"?>
<svg version="1.1" xmlns:xlink="http://www.w3.org/1999/xlink" width="264px" height="34px" xmlns="http://www.w3.org/2000/svg">
  <g transform="matrix(1 0 0 1 -350 -960 )">
    <path d="M 351 962  A 1 1 0 0 1 352 961 L 612 961  A 1 1 0 0 1 613 962 L 613 992  A 1 1 0 0 1 612 993 L 352 993  A 1 1 0 0 1 351 992 L 351 962  Z " fill-rule="nonzero" fill="#ffffff" stroke="none" />
    <path d="M 350.5 962  A 1.5 1.5 0 0 1 352 960.5 L 612 960.5  A 1.5 1.5 0 0 1 613.5 962 L 613.5 992  A 1.5 1.5 0 0 1 612 993.5 L 352 993.5  A 1.5 1.5 0 0 1 350.5 992 L 350.5 962  Z " stroke-width="1" stroke="#e8e8ec" fill="none" stroke-opacity="0.972549019607843" />
  </g>
</svg>