<?xml version="1.0" encoding="utf-8"?>
<svg version="1.1" xmlns:xlink="http://www.w3.org/1999/xlink" width="127px" height="34px" xmlns="http://www.w3.org/2000/svg">
  <g transform="matrix(1 0 0 1 -715 -960 )">
    <path d="M 716 962  A 1 1 0 0 1 717 961 L 840 961  A 1 1 0 0 1 841 962 L 841 992  A 1 1 0 0 1 840 993 L 717 993  A 1 1 0 0 1 716 992 L 716 962  Z " fill-rule="nonzero" fill="#ffffff" stroke="none" />
    <path d="M 715.5 962  A 1.5 1.5 0 0 1 717 960.5 L 840 960.5  A 1.5 1.5 0 0 1 841.5 962 L 841.5 992  A 1.5 1.5 0 0 1 840 993.5 L 717 993.5  A 1.5 1.5 0 0 1 715.5 992 L 715.5 962  Z " stroke-width="1" stroke="#e8e8ec" fill="none" stroke-opacity="0.972549019607843" />
  </g>
</svg>