<?xml version="1.0" encoding="utf-8"?>
<svg version="1.1" xmlns:xlink="http://www.w3.org/1999/xlink" width="155px" height="34px" xmlns="http://www.w3.org/2000/svg">
  <g transform="matrix(1 0 0 1 -350 -1068 )">
    <path d="M 351 1070  A 1 1 0 0 1 352 1069 L 503 1069  A 1 1 0 0 1 504 1070 L 504 1100  A 1 1 0 0 1 503 1101 L 352 1101  A 1 1 0 0 1 351 1100 L 351 1070  Z " fill-rule="nonzero" fill="#ffffff" stroke="none" />
    <path d="M 350.5 1070  A 1.5 1.5 0 0 1 352 1068.5 L 503 1068.5  A 1.5 1.5 0 0 1 504.5 1070 L 504.5 1100  A 1.5 1.5 0 0 1 503 1101.5 L 352 1101.5  A 1.5 1.5 0 0 1 350.5 1100 L 350.5 1070  Z " stroke-width="1" stroke="#e8e8ec" fill="none" stroke-opacity="0.972549019607843" />
  </g>
</svg>